<svg width="24" height="24" viewBox="0 0 24 24" fill="none" xmlns="http://www.w3.org/2000/svg">
<path d="M24 20.6667C24 22.508 22.508 24 20.6667 24H3.33333C1.49267 24 0 22.508 0 20.6667V3.33333C0 1.492 1.49267 0 3.33333 0H20.6667C22.508 0 24 1.492 24 3.33333V20.6667Z" fill="#4DA8FF"/>
<path d="M5 8.08333H7.91667V18H5V8.08333ZM6.44958 6.91667H6.43325C5.56292 6.91667 5 6.268 5 5.45775C5 4.63 5.58042 4 6.4665 4C7.35375 4 7.90033 4.63 7.91667 5.45775C7.91667 6.26742 7.35375 6.91667 6.44958 6.91667ZM19 18H16.0833V12.6922C16.0833 11.4101 15.3687 10.5351 14.2213 10.5351C13.3458 10.5351 12.8721 11.1254 12.6422 11.6959C12.5582 11.9001 12.5833 12.4647 12.5833 12.75V18H9.66667V8.08333H12.5833V9.60933C13.0039 8.95833 13.6625 8.08333 15.3472 8.08333C17.4343 8.08333 18.9994 9.39583 18.9994 12.3265L19 18Z" fill="white"/>
</svg>
