<svg width="85" height="252" viewBox="0 0 85 252" fill="none" xmlns="http://www.w3.org/2000/svg">
<path d="M75.84 240.44C78.336 240.44 80.352 241.112 81.888 242.456C83.424 243.8 84.192 245.624 84.192 247.928C84.192 250.04 83.424 251.672 81.888 252.824C80.544 254.168 78.528 254.84 75.84 254.84H56.832C48.192 254.84 41.664 252.536 37.248 247.928C32.832 243.32 30.624 236.696 30.624 228.056V158.072C30.624 150.2 28.992 144.44 25.728 140.792C22.656 137.144 17.184 135.128 9.31199 134.744C3.74399 134.168 0.959991 131.672 0.959991 127.256C0.959991 125.336 1.63199 123.704 2.97599 122.36C4.51199 121.016 6.62399 120.248 9.31199 120.056C17.184 119.48 22.656 117.368 25.728 113.72C28.992 110.072 30.624 104.312 30.624 96.44V26.744C30.624 18.104 32.832 11.48 37.248 6.87196C41.664 2.26396 48.192 -0.0400391 56.832 -0.0400391H75.84C78.528 -0.0400391 80.544 0.631966 81.888 1.97597C83.424 3.12797 84.192 4.75996 84.192 6.87196C84.192 9.17596 83.424 11 81.888 12.344C80.352 13.688 78.336 14.36 75.84 14.36H60.576C52.128 14.36 47.904 18.776 47.904 27.608V98.168C47.904 106.424 45.888 113.048 41.856 118.04C38.016 122.84 33.216 125.912 27.456 127.256C33.216 128.6 38.016 131.768 41.856 136.76C45.888 141.56 47.904 148.088 47.904 156.344V227.192C47.904 236.024 52.128 240.44 60.576 240.44H75.84Z" fill="#DBEAF7"/>
</svg>
