<svg width="84" height="252" viewBox="0 0 84 252" fill="none" xmlns="http://www.w3.org/2000/svg">
<path d="M75.4045 120.056C80.9725 120.248 83.7565 122.648 83.7565 127.256C83.7565 131.672 80.9725 134.168 75.4045 134.744C67.7245 135.128 62.3485 137.144 59.2765 140.792C56.3965 144.248 54.9565 150.008 54.9565 158.072L54.3805 228.056C54.3805 236.696 52.1725 243.32 47.7565 247.928C43.3405 252.536 36.8125 254.84 28.1725 254.84H9.1645C6.4765 254.84 4.3645 254.168 2.8285 252.824C1.4845 251.672 0.8125 250.04 0.8125 247.928C0.8125 245.624 1.5805 243.8 3.1165 242.456C4.6525 241.112 6.6685 240.44 9.1645 240.44H24.4285C32.8765 240.44 37.1005 236.024 37.1005 227.192V156.344C37.1005 148.088 39.0205 141.56 42.8605 136.76C46.8925 131.768 51.6925 128.6 57.2605 127.256C51.6925 125.912 46.8925 122.84 42.8605 118.04C39.0205 113.048 37.1005 106.424 37.1005 98.168V27.608C37.1005 18.776 32.8765 14.36 24.4285 14.36H9.1645C6.6685 14.36 4.6525 13.688 3.1165 12.344C1.5805 11 0.8125 9.17596 0.8125 6.87196C0.8125 4.75996 1.4845 3.12797 2.8285 1.97597C4.3645 0.631966 6.4765 -0.0400391 9.1645 -0.0400391H28.1725C36.8125 -0.0400391 43.3405 2.26396 47.7565 6.87196C52.1725 11.48 54.3805 18.104 54.3805 26.744V96.44C54.3805 104.312 55.9165 110.072 58.9885 113.72C62.0605 117.368 67.5325 119.48 75.4045 120.056Z" fill="#DBEAF7"/>
</svg>
